<?xml version="1.0" standalone="no"?><!DOCTYPE svg PUBLIC "-//W3C//DTD SVG 1.1//EN" "http://www.w3.org/Graphics/SVG/1.1/DTD/svg11.dtd"><svg t="1511251060472" class="icon" style="" viewBox="0 0 1024 1024" version="1.1" xmlns="http://www.w3.org/2000/svg" p-id="980" xmlns:xlink="http://www.w3.org/1999/xlink" width="16" height="16"><defs><style type="text/css"></style></defs><path d="M225.113302 814.222884h562.461768V113.092465H225.089488v701.130419z m339.825117-757.688558a11.549767 11.549767 0 0 0-11.716466-11.311628h-117.212279a11.573581 11.573581 0 0 0-11.716465 11.311628v11.311627c0 6.215442 5.310512 11.311628 11.716465 11.311628h117.212279c6.429767 0 11.692651-5.096186 11.692652-11.311628v-11.311627z m-58.582326 893.380465c25.766698 0 46.86586-20.337116 46.86586-45.222698 0-24.861767-21.099163-45.246512-46.889674-45.246512-25.766698 0-46.86586 20.384744-46.86586 45.246512 0 24.885581 21.099163 45.246512 46.86586 45.246512z m281.218977 67.869767H225.089488C186.439442 1017.808372 154.790698 987.231256 154.790698 949.938605V67.869767C154.790698 30.529488 186.415628 0 225.113302 0h562.461768c38.67386 0 70.322605 30.529488 70.322604 67.869767v882.068838c0 37.292651-31.672558 67.869767-70.322604 67.869767z" fill="#36ab60" p-id="981"></path></svg>