<?xml version="1.0" standalone="no"?><!DOCTYPE svg PUBLIC "-//W3C//DTD SVG 1.1//EN" "http://www.w3.org/Graphics/SVG/1.1/DTD/svg11.dtd"><svg t="1511251075213" class="icon" style="" viewBox="0 0 1025 1024" version="1.1" xmlns="http://www.w3.org/2000/svg" p-id="1170" xmlns:xlink="http://www.w3.org/1999/xlink" width="16.015625" height="16"><defs><style type="text/css"></style></defs><path d="M1012.366032 218.577181c0 0-118.02609-154.523329-499.960803-154.523329-381.916293 0-499.948523 154.523329-499.948523 154.523329-6.841825 8.950859-12.456706 25.51307-12.456706 36.774555l0 186.765661c0 11.248182 8.774851 17.628496 19.491936 14.161534l217.201857-56.129368c10.735505-3.498684 19.507286-15.573697 19.507286-26.853601l0-80.399121c0-147.802254 512.728594-137.543609 512.728594 0l0 68.521606c0 11.305487 8.642844 23.727401 19.240203 27.644617l217.169111 66.393129c10.573823 3.918239 19.208481-2.090615 19.235087-13.338796l0.218988-186.765661C1024.805342 244.090251 1019.216044 227.52804 1012.366032 218.577181z" p-id="1171" fill="#36ab60"></path><path d="M969.05255 849.245907l-9.0624-152.278195c-1.38351-23.249517-16.387225-55.298444-33.338293-71.255881L709.693548 435.903881c0 0-5.870708-161.568792-78.562287-161.568792L393.662825 274.335089c-80.356143 0-78.438467 161.02644-78.438467 161.02644-15.471366 5.332449-218.48713 190.350302-218.48713 190.350302-16.941857 15.957437-31.94455 48.006364-33.342386 71.255881l-9.058306 152.278195c-1.400906 23.231097 16.515139 42.230824 39.803541 42.230824l835.126328 0C952.537412 891.475707 970.450387 872.477005 969.05255 849.245907zM401.23529 778.305205 297.378921 778.305205l0-46.708811 103.856369 0L401.23529 778.305205zM401.23529 678.295444 297.378921 678.295444l0-46.708811 103.856369 0L401.23529 678.295444zM401.23529 578.284659 297.378921 578.284659l0-46.708811 103.856369 0L401.23529 578.284659zM545.206286 778.305205 441.348893 778.305205l0-46.708811 103.856369 0L545.205263 778.305205zM545.206286 678.295444 441.348893 678.295444l0-46.708811 103.856369 0L545.205263 678.295444zM545.206286 578.284659 441.348893 578.284659l0-46.708811 103.856369 0L545.205263 578.284659zM689.176258 778.305205 585.319889 778.305205l0-46.708811 103.856369 0L689.176258 778.305205zM689.176258 678.295444 585.319889 678.295444l0-46.708811 103.856369 0L689.176258 678.295444zM689.176258 578.284659 585.319889 578.284659l0-46.708811 103.856369 0L689.176258 578.284659z" p-id="1172" fill="#36ab60"></path></svg>