<?xml version="1.0" standalone="no"?><!DOCTYPE svg PUBLIC "-//W3C//DTD SVG 1.1//EN" "http://www.w3.org/Graphics/SVG/1.1/DTD/svg11.dtd"><svg t="1511251046339" class="icon" style="" viewBox="0 0 1024 1024" version="1.1" xmlns="http://www.w3.org/2000/svg" p-id="790" xmlns:xlink="http://www.w3.org/1999/xlink" width="16" height="16"><defs><style type="text/css"></style></defs><path d="M913.913 523.756c11.744 11.185 17.896 23.488 18.454 36.909 0.56 13.422-3.914 24.606-13.421 33.555-10.626 9.508-22.93 13.982-36.91 13.422-13.98-0.56-25.166-4.473-33.555-11.745-2.796-2.237-11.325-10.067-25.585-23.488-14.26-13.422-31.317-29.5-51.17-48.235a23718.004 23718.004 0 0 1-63.754-60.397 27051.393 27051.393 0 0 0-64.173-60.818c-20.133-19.014-37.47-35.512-52.009-49.493-14.54-13.98-23.768-22.648-27.683-26.004-17.896-16.218-35.511-24.048-52.847-23.489-17.338 0.56-34.394 8.389-51.172 23.489-5.592 5.033-16.078 14.68-31.457 28.94-15.378 14.261-33.135 30.898-53.267 49.913a8444.45 8444.45 0 0 1-63.754 59.559c-22.369 20.692-43.06 39.985-62.076 57.88-19.013 17.897-35.372 33.135-49.073 45.718-13.7 12.583-21.95 19.992-24.747 22.23-8.388 6.71-19.573 10.345-33.554 10.904-13.98 0.56-26.005-3.636-36.072-12.582-11.185-10.066-16.497-22.23-15.938-36.492 0.559-14.26 5.312-25.583 14.26-33.973 3.356-3.355 13.701-13.143 31.039-29.36a30581.134 30581.134 0 0 1 62.075-57.882c24.048-22.37 49.912-46.416 77.595-72.142a16683.562 16683.562 0 0 0 77.175-72.142c23.768-22.37 44.18-41.523 61.237-57.462 17.057-15.939 26.984-25.305 29.78-28.102 21.25-20.692 44.18-31.177 68.786-31.457 24.606-0.28 45.579 7.969 62.914 24.746 3.355 2.797 10.346 9.368 20.971 19.714a10745.69 10745.69 0 0 0 39.008 37.749c15.379 14.82 32.576 31.457 51.589 49.912a11627.401 11627.401 0 0 0 57.881 55.784 5552.209 5552.209 0 0 1 57.462 55.785c18.735 18.454 35.932 35.092 51.59 49.911 15.66 14.82 28.801 27.543 39.427 38.169l20.974 20.974zM460.089 402.122c13.982-12.863 30.76-19.714 50.332-20.553 19.573-0.839 37.189 6.012 52.848 20.553 1.677 1.677 6.71 6.43 15.1 14.26l31.876 29.36a12100.802 12100.802 0 0 0 41.524 39.426 2438.105 2438.105 0 0 0 47.395 43.622c37.469 34.672 79.412 73.54 125.829 116.601v159.384c0 12.303-4.613 23.208-13.84 32.714-9.229 9.507-21.672 14.54-37.33 15.1H615.277V722.566c0-18.454-8.669-27.683-26.005-27.683H429.052c-9.507 0-16.078 2.797-19.713 8.389-3.635 5.593-5.453 12.024-5.453 19.294 0 3.356-0.14 11.883-0.42 25.586-0.28 13.7-0.419 28.381-0.419 44.04v60.397H249.535c-16.218 0-29.08-3.636-38.587-10.905-9.507-7.27-14.26-17.616-14.26-31.038V643.713a74621.97 74621.97 0 0 1 124.99-114.085 6598.372 6598.372 0 0 1 46.976-43.201 45828.09 45828.09 0 0 0 42.782-39.008c12.862-11.743 23.628-21.67 32.296-29.779s14.12-13.282 16.357-15.518z" fill="#36ab60" p-id="791"></path></svg>